<svg width="17" height="16" viewBox="0 0 17 16" fill="none" xmlns="http://www.w3.org/2000/svg">
<path d="M2.16882 5.27647H12.8095C13.5462 5.27647 14.1428 5.87314 14.1428 6.6098V12.6665C14.1428 13.3998 13.5428 13.9998 12.8095 13.9998H3.47616C2.73949 13.9998 2.14282 13.4031 2.14282 12.6665V5.52714C2.14282 4.97247 2.48616 4.4758 3.00549 4.2798L9.90749 1.6738C10.3435 1.50914 10.8095 1.83114 10.8095 2.29714V5.2758" stroke="#E12828" stroke-linecap="round" stroke-linejoin="round"/>
<path d="M10.8089 9.41664C10.6709 9.41731 10.5595 9.52931 10.5595 9.66731C10.5595 9.80531 10.6715 9.91731 10.8095 9.91664C10.9475 9.91664 11.0595 9.80464 11.0595 9.66664C11.0595 9.52864 10.9475 9.41664 10.8089 9.41664" stroke="#E12828" stroke-linecap="round" stroke-linejoin="round"/>
</svg>
